<?xml version="1.0" encoding="iso-8859-1"?>
<!-- Generator: Adobe Illustrator 19.0.0, SVG Export Plug-In . SVG Version: 6.00 Build 0)  -->
<svg version="1.1" id="Capa_1" xmlns="http://www.w3.org/2000/svg" xmlns:xlink="http://www.w3.org/1999/xlink" x="0px" y="0px"
	 viewBox="0 0 512 512" style="enable-background:new 0 0 512 512;" xml:space="preserve">
<path style="fill:#725D57;" d="M120,316H75c-24.814,0-45-20.186-45-45h30c0,8.276,6.724,15,15,15h15v-45h30V316z"/>
<rect x="90" y="16" style="fill:#53433F;" width="30" height="45"/>
<g>
	<rect x="332" y="16" style="fill:#3E322E;" width="30" height="45"/>
	<rect x="392" y="16" style="fill:#3E322E;" width="30" height="45"/>
	<rect x="452" y="106" style="fill:#3E322E;" width="60" height="120"/>
</g>
<rect x="120" y="46" width="30" height="90"/>
<path style="fill:#53433F;" d="M105,256c-24.814,0-45-20.186-45-45v-45h90v45C150,235.814,129.814,256,105,256z"/>
<polygon style="fill:#725D57;" points="482,436 482,496 0,496 0,436 59.099,406 418.1,406 "/>
<polyline style="fill:#68544F;" points="241,496 241,406 418.1,406 482,436 482,496 "/>
<path style="fill:#A8D32A;" d="M482,286l-14.399,14.399L482,316v30l-14.399,20.7L482,376v60H0v-45c0-24.901,20.099-45,45-45h242
	c8.401,0,15-6.601,15-15V211c0-8.401-6.599-15-15-15H0v-75c0-41.4,33.6-75,75-75h362c24.901,0,45,20.099,45,45V286z"/>
<path style="fill:#93BF00;" d="M482,286l-14.399,14.399L482,316v30l-14.399,20.7L482,376v60H241v-90h46c8.401,0,15-6.601,15-15V211
	c0-8.401-6.599-15-15-15h-46V46h196c24.901,0,45,20.099,45,45V286z"/>
<g>
	<rect x="362" y="286" style="fill:#68544F;" width="120" height="30"/>
	<rect x="362" y="346" style="fill:#68544F;" width="120" height="30"/>
</g>
<path style="fill:#DFD7D5;" d="M377,196c-24.814,0-45-20.186-45-45s20.186-45,45-45s45,20.186,45,45S401.814,196,377,196z"/>
<g>
</g>
<g>
</g>
<g>
</g>
<g>
</g>
<g>
</g>
<g>
</g>
<g>
</g>
<g>
</g>
<g>
</g>
<g>
</g>
<g>
</g>
<g>
</g>
<g>
</g>
<g>
</g>
<g>
</g>
</svg>
